<svg id="Layer_1" data-name="Layer 1" xmlns="http://www.w3.org/2000/svg" xmlns:xlink="http://www.w3.org/1999/xlink" viewBox="0 0 158.22 158.27"><defs><style>.cls-1,.cls-5{fill:none;}.cls-2{clip-path:url(#clip-path);}.cls-3{clip-path:url(#clip-path-2);}.cls-4{fill:#62dbf1;}.cls-5{stroke:#000;stroke-miterlimit:10;stroke-width:1.5px;}</style><clipPath id="clip-path"><circle class="cls-1" cx="79.09" cy="78.98" r="79"/></clipPath><clipPath id="clip-path-2"><rect class="cls-1" x="0.09" y="-0.02" width="158" height="158"/></clipPath></defs><title>Artboard 5</title><g class="cls-2"><g class="cls-3"><rect class="cls-4" x="-4.91" y="-5.02" width="168" height="168"/></g></g><g class="cls-3"><path class="cls-5" d="M25.09,85.5S52.77,82,57.2,82,74,93.15,84.85,106.6c3.17,3.92,1.2,7.47-1.2,7.47-1.6,0-9.7-4.18-25.35-14.73"/><path class="cls-5" d="M25.09,107.83H44.35c4,0,31.28,17.58,37.3,17.58s16.44-4.24,34.89-16.55c4.35-2.91,1.29-8.16-2.81-6.59C96.48,108.86,86.34,112,86.34,112"/><line class="cls-5" x1="86.53" y1="107.33" x2="109.42" y2="99.42"/><line class="cls-5" x1="84.53" y1="104.45" x2="105.66" y2="97.42"/><path class="cls-5" d="M93,62a18.48,18.48,0,1,0-14.79,0l.06,9.38H93.06Z"/><line class="cls-5" x1="93.72" y1="75.73" x2="77.57" y2="75.73"/><line class="cls-5" x1="93.72" y1="79.73" x2="77.57" y2="79.73"/><line class="cls-5" x1="93.72" y1="83.73" x2="77.57" y2="83.73"/></g></svg>