<svg id="Layer_1" data-name="Layer 1" xmlns="http://www.w3.org/2000/svg" viewBox="0 0 371.5 82"><defs><style>.cls-1{fill:#ffd524;}.cls-2{fill:#62dcf1;}.cls-3{fill:#5aa000;}</style></defs><title>Artboard 2</title><path class="cls-1" d="M50.91,5.68c-14.12.42-23.78,11-23.44,23.85.28,10.74,5.23,16,13,21.23,2.58,1.73,3,3.15,3,8v7.44l14-.95V58.8c.18-5.53,2.23-7.42,4.6-9,7.56-5,12.23-11.09,12.32-20.64C74.44,14.65,64,5.29,50.91,5.68Z"/><rect x="50.62" y="22.74" width="1.08" height="10.07" transform="translate(-7 25.19) rotate(-25.96)"/><path d="M53.61,39.73c-3.86,0-6.89-5.21-7-5.46l.94-.53c0,.06,3.39,5.84,7,4.78s3.4-7.45,3.39-7.52L59,30.94c0,.3.39,7.28-4.17,8.61A4.29,4.29,0,0,1,53.61,39.73Z"/><ellipse cx="43.53" cy="28.69" rx="1.29" ry="1.94" transform="translate(-5.86 12.01) rotate(-14.73)"/><ellipse cx="60.06" cy="25.82" rx="1.2" ry="2.03" transform="translate(-4.59 16.12) rotate(-14.73)"/><polygon class="cls-2" points="59.69 70.44 41.08 69.97 41.44 58.21 59.47 57.31 59.69 70.44"/><path class="cls-3" d="M43.4,58.74v7.44l14-.95V58.8c0-.49.05-.95.1-1.39l-14.07.7C43.39,58.32,43.4,58.52,43.4,58.74Z"/><polygon class="cls-1" points="161.82 58.42 161.07 57.66 155.73 63 155.73 55.45 154.67 55.45 154.67 63 149.33 57.66 148.58 58.42 153.91 63.75 146.37 63.75 146.37 64.82 153.92 64.82 148.58 70.15 149.33 70.9 154.67 65.57 154.67 73.11 155.73 73.11 155.73 65.57 161.07 70.9 161.82 70.15 156.48 64.82 164.03 64.82 164.03 63.75 156.49 63.75 161.82 58.42"/><polygon class="cls-1" points="87.73 4.84 86.98 4.09 83.82 7.25 83.82 2.78 82.75 2.78 82.75 7.25 79.59 4.09 78.84 4.84 82 8 77.53 8 77.53 9.06 82 9.06 78.84 12.22 79.59 12.98 82.75 9.82 82.75 14.29 83.82 14.29 83.82 9.82 86.98 12.98 87.73 12.22 84.57 9.06 89.04 9.06 89.04 8 84.57 8 87.73 4.84"/><polygon class="cls-1" points="124.13 9.46 123.38 8.71 119.42 12.66 119.42 7.07 118.36 7.07 118.36 12.66 114.41 8.71 113.65 9.46 117.61 13.42 112.01 13.42 112.01 14.48 117.61 14.48 113.65 18.44 114.41 19.19 118.36 15.23 118.36 20.83 119.42 20.83 119.42 15.23 123.38 19.19 124.13 18.44 120.18 14.48 125.77 14.48 125.77 13.42 120.18 13.42 124.13 9.46"/><polygon class="cls-1" points="103.54 19.8 103.15 19.41 101.11 21.45 101.11 18.57 100.56 18.57 100.56 21.45 98.53 19.41 98.14 19.8 100.18 21.83 97.3 21.83 97.3 22.38 100.18 22.38 98.14 24.42 98.53 24.81 100.56 22.77 100.56 25.65 101.11 25.65 101.11 22.77 103.15 24.81 103.54 24.42 101.5 22.38 104.38 22.38 104.38 21.83 101.5 21.83 103.54 19.8"/><polygon class="cls-1" points="207.97 42.91 208.72 42.15 204.28 37.72 208.72 33.28 207.97 32.52 204.06 36.43 204.06 30.91 203 30.91 203 36.43 199.09 32.52 198.34 33.28 202.78 37.72 198.34 42.15 199.09 42.91 203 39 203 44.52 204.06 44.52 204.06 39 207.97 42.91"/><polygon class="cls-1" points="23.23 20.25 23.72 19.75 20.81 16.84 23.72 13.93 23.23 13.44 20.67 16 20.67 12.38 19.97 12.38 19.97 16 17.41 13.44 16.91 13.93 19.82 16.84 16.91 19.75 17.41 20.25 19.97 17.69 19.97 21.31 20.67 21.31 20.67 17.69 23.23 20.25"/><polygon class="cls-1" points="28.46 61.87 27.71 61.12 23.58 65.25 23.58 59.41 22.51 59.41 22.51 65.25 18.39 61.12 17.63 61.87 21.76 66 15.92 66 15.92 67.06 21.76 67.06 17.63 71.19 18.39 71.94 22.51 67.82 22.51 73.65 23.58 73.65 23.58 67.82 27.71 71.94 28.46 71.19 24.33 67.06 30.17 67.06 30.17 66 24.33 66 28.46 61.87"/><rect class="cls-1" x="77.03" y="44.37" width="14" height="1.06"/><rect class="cls-1" x="112.77" y="29.48" width="1.06" height="8.56"/><rect class="cls-1" x="69.25" y="66.33" width="12.35" height="1.06"/><rect class="cls-1" x="74.9" y="60.36" width="1.06" height="12.35"/><rect class="cls-1" x="30.97" y="51.09" width="1.06" height="6.27"/><rect class="cls-1" x="1.07" y="48.62" width="17.99" height="1.06"/><polygon class="cls-1" points="104.06 0.7 103 0.7 103 2 101.7 2 101.7 3.06 103 3.06 103 4.37 104.06 4.37 104.06 3.06 105.37 3.06 105.37 2 104.06 2 104.06 0.7"/><polygon class="cls-1" points="134.4 21.97 133.33 21.97 133.33 23.27 132.03 23.27 132.03 24.33 133.33 24.33 133.33 25.64 134.4 25.64 134.4 24.33 135.7 24.33 135.7 23.27 134.4 23.27 134.4 21.97"/><polygon class="cls-1" points="325.13 27.8 324.38 27.04 320.43 31 320.43 25.4 319.36 25.4 319.36 31 315.4 27.04 314.65 27.8 318.61 31.75 313.01 31.75 313.01 32.81 318.61 32.81 314.65 36.77 315.4 37.52 319.36 33.57 319.36 39.16 320.43 39.16 320.43 33.57 324.38 37.52 325.13 36.77 321.18 32.81 326.77 32.81 326.77 31.75 321.18 31.75 325.13 27.8"/><polygon class="cls-1" points="337.64 21.35 337.25 20.96 335.21 23 335.21 20.12 334.67 20.12 334.67 23 332.63 20.96 332.24 21.35 334.28 23.39 331.4 23.39 331.4 23.93 334.28 23.93 332.24 25.97 332.63 26.36 334.67 24.32 334.67 27.2 335.21 27.2 335.21 24.32 337.25 26.36 337.64 25.97 335.6 23.93 338.48 23.93 338.48 23.39 335.6 23.39 337.64 21.35"/><polygon class="cls-1" points="369.64 71.91 370.39 71.15 365.95 66.72 370.39 62.28 369.64 61.52 365.73 65.43 365.73 59.91 364.67 59.91 364.67 65.43 360.76 61.52 360.01 62.28 364.45 66.72 360.01 71.15 360.76 71.91 364.67 68 364.67 73.52 365.73 73.52 365.73 68 369.64 71.91"/><polygon class="cls-1" points="288 30.36 286.94 30.36 286.94 31.67 285.63 31.67 285.63 32.73 286.94 32.73 286.94 34.03 288 34.03 288 32.73 289.3 32.73 289.3 31.67 288 31.67 288 30.36"/><polygon class="cls-1" points="320.37 11.7 319.3 11.7 319.3 13 318 13 318 14.06 319.3 14.06 319.3 15.37 320.37 15.37 320.37 14.06 321.67 14.06 321.67 13 320.37 13 320.37 11.7"/><polygon class="cls-1" points="123.04 30.66 121.97 30.66 121.97 31.97 120.67 31.97 120.67 33.03 121.97 33.03 121.97 34.33 123.04 34.33 123.04 33.03 124.34 33.03 124.34 31.97 123.04 31.97 123.04 30.66"/><polygon class="cls-1" points="8.06 28.5 7 28.5 7 31.67 3.83 31.67 3.83 32.73 7 32.73 7 35.9 8.06 35.9 8.06 32.73 11.23 32.73 11.23 31.67 8.06 31.67 8.06 28.5"/><polygon class="cls-1" points="292.89 61.81 291.82 61.81 291.82 65.68 287.95 65.68 287.95 66.74 291.82 66.74 291.82 70.61 292.89 70.61 292.89 66.74 296.76 66.74 296.76 65.68 292.89 65.68 292.89 61.81"/><polygon class="cls-1" points="250.45 39.92 249.39 39.92 249.39 47.45 241.86 47.45 241.86 48.51 249.39 48.51 249.39 56.04 250.45 56.04 250.45 48.51 257.98 48.51 257.98 47.45 250.45 47.45 250.45 39.92"/><polygon class="cls-1" points="86.67 29.97 85.6 29.97 85.6 31.27 84.3 31.27 84.3 32.33 85.6 32.33 85.6 33.64 86.67 33.64 86.67 32.33 87.97 32.33 87.97 31.27 86.67 31.27 86.67 29.97"/><polygon points="48.22 79.44 44.78 79.44 44.78 78.72 47.86 78.72 47.86 69.22 48.58 69.22 48.58 79.08 48.22 79.44"/><polygon points="55.18 79.44 51.75 79.44 51.39 79.08 51.39 69.22 52.11 69.22 52.11 78.72 55.18 78.72 55.18 79.44"/><path class="cls-2" d="M86.13,61.5V56.29c0-12.85,5.27-18.36,12.85-18.36s12.85,5.51,12.85,18.36V61.5c0,12.85-5.27,18.36-12.85,18.36S86.13,74.35,86.13,61.5ZM93,56.29V61.5c0,8.82,2,12.44,6,12.44s6-3.61,6-12.44V56.29c0-8.82-2-12.43-6-12.43S93,47.47,93,56.29Z"/><path class="cls-3" d="M88,45.43H91V44.37H88.44Q88.18,44.88,88,45.43Z"/><path class="cls-2" d="M151.26,38.46V79.32H145l-12-24.22V79.32h-6.87V38.46h6.1L144.39,63V38.46Z"/><polygon class="cls-3" points="148.58 58.42 151.26 61.1 151.26 59.59 149.33 57.66 148.58 58.42"/><rect class="cls-3" x="146.37" y="63.75" width="4.89" height="1.06"/><polygon class="cls-3" points="151.26 67.47 148.58 70.15 149.33 70.9 151.26 68.97 151.26 67.47"/><path class="cls-2" d="M188.69,38.46v6H174.77V55.22h12.44v5.92H174.77V73.4h13.92v5.92H167.9V38.46Z"/><path class="cls-2" d="M226.36,38.46c7.88,0,12.2,3.55,12.2,10.6,0,4.2-1.78,7.58-4.44,8.88,3.49,1.3,5.51,4.5,5.51,9.65,0,6.16-3.37,11.72-12.2,11.72h-12.2V38.46Zm-4.26,16.7h4.38c3.79,0,5.21-2.31,5.21-5.68,0-3.2-1-5.09-5.92-5.09H222.1Zm0,18.24h4.8c4.09,0,5.86-2.25,5.86-6.16,0-4.32-2-6.16-6.51-6.16H222.1Z"/><path class="cls-2" d="M278.82,38.46V62.74c0,12.08-5.39,17.11-12.79,17.11s-12.79-5-12.79-17.05V38.46h6.87V62.8c0,7.82,1.72,11.07,5.92,11.07S272,70.62,272,62.8V38.46Z"/><rect class="cls-3" x="253.25" y="47.45" width="4.73" height="1.06"/><path class="cls-2" d="M302.27,73.4h13.92v5.92H295.41V38.46h6.87Z"/><rect class="cls-3" x="295.41" y="65.68" width="1.35" height="1.06"/><path class="cls-2" d="M341.42,38.46c7.88,0,12.2,3.55,12.2,10.6,0,4.2-1.78,7.58-4.44,8.88,3.49,1.3,5.51,4.5,5.51,9.65,0,6.16-3.37,11.72-12.2,11.72h-12.2V38.46Zm-4.26,16.7h4.38c3.79,0,5.21-2.31,5.21-5.68,0-3.2-1-5.09-5.92-5.09h-3.67Zm0,18.24h4.8c4.09,0,5.86-2.25,5.86-6.16,0-4.32-2-6.16-6.51-6.16h-4.15Z"/><polygon points="55.6 68.5 39.93 68.5 39.84 67.79 52.94 64.29 40.01 64.29 39.91 63.58 53.18 60 39.93 60.02 39.93 59.31 55.9 59.27 56 59.98 42.71 63.57 55.67 63.57 55.77 64.28 42.66 67.78 55.6 67.78 55.6 68.5"/></svg>